<svg width="24" height="24" xmlns="http://www.w3.org/2000/svg">

 <g>
  <title>background</title>
  <rect fill="none" id="canvas_background" height="300" width="300" y="-9" x="-3"/>
 </g>
 <g>
  <title>Layer 1</title>
  <path id="svg_1" fill="none" d="m0,-0.044228l24,0l0,24l-24,0l0,-24z"/>
  <path id="svg_2" fill="rgba(255, 255, 255, 0.65)"  
  height="24" 
  viewBox="0 0 32 20" width="24" d="m20.5,6c-2.61,0.7 -5.67,1 -8.5,1s-5.89,-0.3 -8.5,-1l-0.5,2c1.86,0.5 4,0.83 6,1l0,13l2,0l0,-6l2,0l0,6l2,0l0,-13c2,-0.17 4.14,-0.5 6,-1l-0.5,-2zm-8.5,0c1.1,0 2,-0.9 2,-2s-0.9,-2 -2,-2s-2,0.9 -2,2s0.9,2 2,2z"/>
 </g>
</svg>